<?xml version="1.0" standalone="no"?>
<!DOCTYPE svg PUBLIC "-//W3C//DTD SVG 20010904//EN"
 "http://www.w3.org/TR/2001/REC-SVG-20010904/DTD/svg10.dtd">
<svg version="1.0" xmlns="http://www.w3.org/2000/svg"
 width="64.000000pt" height="64.000000pt" viewBox="0 0 64.000000 64.000000"
 preserveAspectRatio="xMidYMid meet">

<g transform="translate(0.000000,64.000000) scale(0.100000,-0.100000)"
fill="#48BB78" stroke="none">
<path d="M187 574 c-60 -34 -113 -66 -119 -72 -6 -6 10 -21 47 -42 l58 -33 54
29 c30 16 59 34 64 41 5 6 9 40 7 75 l-3 64 -108 -62z"/>
<path d="M342 569 l3 -73 60 -35 59 -34 53 29 c29 16 53 34 54 39 1 6 -36 32
-82 58 -46 27 -99 58 -117 69 l-33 20 3 -73z"/>
<path d="M30 320 c0 -77 3 -140 8 -140 4 0 32 15 62 33 l55 33 0 74 0 74 -55
32 c-30 18 -58 33 -62 34 -5 0 -8 -63 -8 -140z"/>
<path d="M538 424 l-58 -36 0 -68 0 -69 59 -35 c32 -20 61 -36 65 -36 3 0 6
63 6 140 0 77 -3 140 -7 140 -5 0 -34 -17 -65 -36z"/>
<path d="M280 397 c-52 -27 -62 -104 -19 -143 30 -27 93 -25 121 4 30 29 31
94 3 122 -26 26 -74 34 -105 17z"/>
<path d="M111 176 l-54 -34 24 -15 c13 -8 68 -40 122 -71 l98 -56 -3 72 -3 72
-55 32 c-30 18 -59 33 -65 33 -5 0 -34 -15 -64 -33z"/>
<path d="M400 176 l-55 -32 -3 -74 -3 -73 23 15 c13 8 65 39 116 68 51 29 95
56 97 60 5 8 -95 70 -111 70 -5 -1 -34 -16 -64 -34z"/>
</g>
</svg>
